<svg width="83" height="73" viewBox="0 0 83 73" fill="none" xmlns="http://www.w3.org/2000/svg">
<path d="M79.9836 49.6297H3.62891C2.38984 49.6297 1.39453 48.6344 1.39453 47.3953V46.4813C1.39453 45.2422 2.38984 44.2469 3.62891 44.2469H79.9836C81.2226 44.2469 82.218 45.2422 82.218 46.4813V47.3953C82.1976 48.6344 81.2023 49.6297 79.9836 49.6297Z" stroke="white" style="stroke:white;stroke-opacity:1;" stroke-miterlimit="10" stroke-linecap="round" stroke-linejoin="round"/>
<path d="M41.7957 6.87189C21.1379 6.87189 4.40039 23.6094 4.40039 44.2672H79.191C79.2113 23.6094 62.4535 6.87189 41.7957 6.87189Z" stroke="white" style="stroke:white;stroke-opacity:1;" stroke-miterlimit="10" stroke-linecap="round" stroke-linejoin="round"/>
<path d="M55.2422 53.7938L58.4516 50.625C59.3047 49.7922 60.5031 49.4672 61.6203 49.7109" stroke="white" style="stroke:white;stroke-opacity:1;" stroke-miterlimit="10" stroke-linecap="round" stroke-linejoin="round"/>
<path d="M16.3848 56.9219L23.6363 51.5594C25.241 50.3812 27.1504 49.7109 29.1207 49.65C29.9129 49.6297 30.7051 49.6906 31.477 49.8531L39.7035 52.4531L48.4176 49.8125C50.0629 49.3047 51.8301 49.8734 52.8863 51.2344L52.927 51.275C53.4754 51.9859 53.252 53.0219 52.4598 53.4484L45.2285 57.3891L57.7816 55.4797L64.9926 50.1172C66.0488 49.4469 67.3895 49.4672 68.4254 50.1578L69.3801 50.7875C70.0301 51.2141 70.0504 52.1687 69.441 52.6359L61.8645 59.1156C60.0363 60.4969 57.9645 61.4922 55.7707 62.0609L49.4941 63.6859C46.6707 64.4172 43.7254 64.7016 40.8207 64.5187L34.991 63.7672C33.6098 63.6859 31.8629 63.7672 30.8676 64.7016L28.4098 66.6516L16.3848 56.9219Z" stroke="white" style="stroke:white;stroke-opacity:1;" stroke-miterlimit="10" stroke-linecap="round" stroke-linejoin="round"/>
<path d="M24.1656 70.9781L13.5218 58.9531C12.9124 58.2828 12.9937 57.2469 13.664 56.6375L15.6343 54.8906C16.3046 54.2812 17.3406 54.3625 17.9499 55.0328L28.5937 67.0578C29.2031 67.7281 29.1218 68.7641 28.4515 69.3734L26.4812 71.1203C25.7906 71.7297 24.7546 71.6687 24.1656 70.9781Z" stroke="white" style="stroke:white;stroke-opacity:1;" stroke-miterlimit="10" stroke-linecap="round" stroke-linejoin="round"/>
<path d="M41.7969 12.1328C44.9941 12.1328 47.5859 9.54096 47.5859 6.34375C47.5859 3.14654 44.9941 0.554688 41.7969 0.554688C38.5997 0.554688 36.0078 3.14654 36.0078 6.34375C36.0078 9.54096 38.5997 12.1328 41.7969 12.1328Z" fill="white" stroke="white" style="fill:white;fill-opacity:1;stroke:white;stroke-opacity:1;" stroke-miterlimit="10" stroke-linecap="round" stroke-linejoin="round"/>
</svg>
