<svg width="46" height="82" viewBox="0 0 46 82" fill="none" xmlns="http://www.w3.org/2000/svg">
<path d="M29.2559 12.3797H16.3574C10.7512 12.3797 7.82617 16.9297 7.82617 22.5359V33.5453C8.49648 32.9765 7.72461 32.6109 8.6793 32.6109C9.4918 32.6109 10.2637 32.875 10.873 33.3219V25.1562C10.873 22.0484 13.3918 19.5297 16.4996 19.5297H28.8902C31.998 19.5297 34.5168 22.0484 34.5168 25.1562V33.3422C35.1465 32.8953 35.9184 32.6109 36.7309 32.6109C37.7668 32.6109 37.0762 33.0375 37.7668 33.7078V22.5359C37.7871 16.9297 34.8621 12.3797 29.2559 12.3797Z" stroke="white" style="stroke:white;stroke-opacity:1;" stroke-miterlimit="10" stroke-linecap="round" stroke-linejoin="round"/>
<path d="M12.4379 55.7875H6.22227C3.11445 55.7875 0.595703 58.3062 0.595703 61.414V81.4422H45.0191V61.414C45.0191 58.3062 42.5004 55.7875 39.3926 55.7875H33.502" stroke="white" style="stroke:white;stroke-opacity:1;" stroke-miterlimit="10" stroke-linecap="round" stroke-linejoin="round"/>
<path d="M27.2457 50.8516V49.1656H18.3691V51.0141" stroke="white" style="stroke:white;stroke-opacity:1;" stroke-miterlimit="10" stroke-linecap="round" stroke-linejoin="round"/>
<path d="M8.76133 39.6594C10.8591 39.6594 12.5598 37.9588 12.5598 35.8609C12.5598 33.7631 10.8591 32.0625 8.76133 32.0625C6.66351 32.0625 4.96289 33.7631 4.96289 35.8609C4.96289 37.9588 6.66351 39.6594 8.76133 39.6594Z" stroke="white" style="stroke:white;stroke-opacity:1;" stroke-miterlimit="10" stroke-linecap="round" stroke-linejoin="round"/>
<path d="M36.8336 39.6594C38.9314 39.6594 40.632 37.9588 40.632 35.8609C40.632 33.7631 38.9314 32.0625 36.8336 32.0625C34.7358 32.0625 33.0352 33.7631 33.0352 35.8609C33.0352 37.9588 34.7358 39.6594 36.8336 39.6594Z" stroke="white" style="stroke:white;stroke-opacity:1;" stroke-miterlimit="10" stroke-linecap="round" stroke-linejoin="round"/>
<path d="M28.9918 49.1656H16.6012C13.4934 49.1656 10.9746 46.6469 10.9746 43.5391V25.1359C10.9746 22.0281 13.4934 19.5094 16.6012 19.5094H28.9918C32.0996 19.5094 34.6184 22.0281 34.6184 25.1359V43.5391C34.6387 46.6469 32.0996 49.1656 28.9918 49.1656Z" stroke="white" style="stroke:white;stroke-opacity:1;" stroke-miterlimit="10" stroke-linecap="round" stroke-linejoin="round"/>
<path d="M36.5902 2.9953C34.6605 2.9953 32.934 3.76718 31.6543 5.02655C29.6637 2.36561 26.4949 0.659363 22.9199 0.659363C19.3449 0.659363 16.1762 2.36561 14.1855 5.02655C12.9262 3.76718 11.1793 2.9953 9.24961 2.9953C5.34961 2.9953 2.20117 6.14374 2.20117 10.0437C2.20117 13.3547 4.49648 16.1375 7.58398 16.889V24.8719H38.2559V16.889C41.3434 16.1375 43.6387 13.375 43.6387 10.0437C43.6387 6.14374 40.4902 2.9953 36.5902 2.9953Z" stroke="white" style="stroke:white;stroke-opacity:1;" stroke-miterlimit="10" stroke-linecap="round" stroke-linejoin="round"/>
<path d="M23.5488 60.5609C24.4832 62.5922 26.4332 63.689 29.216 63.689" stroke="white" style="stroke:white;stroke-opacity:1;" stroke-miterlimit="10" stroke-linecap="round" stroke-linejoin="round"/>
<path d="M29.2168 63.6891V81.4422" stroke="white" style="stroke:white;stroke-opacity:1;" stroke-miterlimit="10" stroke-linecap="round" stroke-linejoin="round"/>
<path d="M29.0535 53.4312H17.0285C16.1348 53.4312 15.4238 54.1422 15.4238 55.0359V56.6203C15.4238 56.7016 15.4441 56.8031 15.4441 56.8844C14.916 57.0469 14.3879 57.2906 13.9207 57.6562C12.0113 59.2 11.9707 62.2875 11.9707 62.2875C11.9707 62.2875 15.0176 62.8766 16.9066 61.3328C17.9426 60.5 18.4301 59.2203 18.6535 58.2047H29.0332C29.927 58.2047 30.6379 57.4937 30.6379 56.6V55.0156C30.6582 54.1422 29.9473 53.4312 29.0535 53.4312Z" stroke="white" style="stroke:white;stroke-opacity:1;" stroke-miterlimit="10" stroke-linecap="round" stroke-linejoin="round"/>
<path d="M23.7926 70.2297C24.8247 70.2297 25.6613 69.393 25.6613 68.3609C25.6613 67.3289 24.8247 66.4922 23.7926 66.4922C22.7605 66.4922 21.9238 67.3289 21.9238 68.3609C21.9238 69.393 22.7605 70.2297 23.7926 70.2297Z" stroke="white" style="stroke:white;stroke-opacity:1;" stroke-miterlimit="10" stroke-linecap="round" stroke-linejoin="round"/>
<path d="M23.7926 78.4359C24.8247 78.4359 25.6613 77.5993 25.6613 76.5672C25.6613 75.5351 24.8247 74.6984 23.7926 74.6984C22.7605 74.6984 21.9238 75.5351 21.9238 76.5672C21.9238 77.5993 22.7605 78.4359 23.7926 78.4359Z" stroke="white" style="stroke:white;stroke-opacity:1;" stroke-miterlimit="10" stroke-linecap="round" stroke-linejoin="round"/>
<path d="M28.6465 12.3797V19.5094" stroke="white" style="stroke:white;stroke-opacity:1;" stroke-miterlimit="10" stroke-linecap="round" stroke-linejoin="round"/>
<path d="M17.2109 12.3797V19.5094" stroke="white" style="stroke:white;stroke-opacity:1;" stroke-miterlimit="10" stroke-linecap="round" stroke-linejoin="round"/>
<path d="M26.8398 31.2094V33.0578" stroke="white" style="stroke:white;stroke-opacity:1;" stroke-miterlimit="10" stroke-linecap="round" stroke-linejoin="round"/>
<path d="M18.7559 31.2094V33.0578" stroke="white" style="stroke:white;stroke-opacity:1;" stroke-miterlimit="10" stroke-linecap="round" stroke-linejoin="round"/>
<path d="M22.7773 42.9906C22.7773 42.9906 24.382 42.1375 25.7227 42.1984C27.0633 42.2594 28.1602 43.9047 30.9023 43.8641" stroke="white" style="stroke:white;stroke-opacity:1;" stroke-miterlimit="10" stroke-linecap="round" stroke-linejoin="round"/>
<path d="M22.8184 42.9906C22.8184 42.9906 21.2137 42.1375 19.873 42.1984C18.5324 42.2594 17.4355 43.9047 14.6934 43.8641" stroke="white" style="stroke:white;stroke-opacity:1;" stroke-miterlimit="10" stroke-linecap="round" stroke-linejoin="round"/>
</svg>
