<svg width="67" height="82" viewBox="0 0 67 82" fill="none" xmlns="http://www.w3.org/2000/svg">
<path d="M65.3223 3.68594H66.1551V81.4422H1.43945V3.68594H2.29258" stroke="white" style="stroke:white;stroke-opacity:1;" stroke-miterlimit="10" stroke-linecap="round" stroke-linejoin="round"/>
<path d="M33.7969 0.639069H4.75V77.6438H33.7969V0.639069Z" stroke="white" style="stroke:white;stroke-opacity:1;" stroke-miterlimit="10" stroke-linecap="round" stroke-linejoin="round"/>
<path d="M62.8438 0.639069H33.7969V77.6438H62.8438V0.639069Z" stroke="white" style="stroke:white;stroke-opacity:1;" stroke-miterlimit="10" stroke-linecap="round" stroke-linejoin="round"/>
<path d="M33.7969 81.4422V80.3453" stroke="white" style="stroke:white;stroke-opacity:1;" stroke-miterlimit="10" stroke-linecap="round" stroke-linejoin="round"/>
<path d="M47.6699 21.0938V27.3906C47.6699 29.7469 46.0855 30.7219 44.1152 30.7219C42.1449 30.7219 40.5605 29.7266 40.5605 27.3906V21.0938" stroke="white" style="stroke:white;stroke-opacity:1;" stroke-miterlimit="10" stroke-linecap="round" stroke-linejoin="round"/>
<path d="M44.1152 31.6359V21.0938" stroke="white" style="stroke:white;stroke-opacity:1;" stroke-miterlimit="10" stroke-linecap="round" stroke-linejoin="round"/>
<path d="M44.1152 53.3094V31.6359" stroke="white" style="stroke:white;stroke-opacity:1;" stroke-miterlimit="10" stroke-linecap="round" stroke-linejoin="round"/>
<path d="M51.4688 21.0938V42.8688L53.9266 40.7563C54.7797 40.025 55.2266 39.0703 55.4906 38.0141C55.6937 37.1609 55.7344 36.2672 55.6734 35.3937L55.3484 31.1484C55.0438 27.4719 53.7031 23.9781 51.4688 21.0938Z" stroke="white" style="stroke:white;stroke-opacity:1;" stroke-miterlimit="10" stroke-linecap="round" stroke-linejoin="round"/>
<path d="M51.4688 53.3094V42.8484" stroke="white" style="stroke:white;stroke-opacity:1;" stroke-miterlimit="10" stroke-linecap="round" stroke-linejoin="round"/>
<path d="M9.58398 16.4422H28.5355" stroke="white" style="stroke:white;stroke-opacity:1;" stroke-miterlimit="10" stroke-linecap="round" stroke-linejoin="round"/>
<path d="M25.9766 21.8453H28.5359" stroke="white" style="stroke:white;stroke-opacity:1;" stroke-miterlimit="10" stroke-linecap="round" stroke-linejoin="round"/>
<path d="M9.58398 21.8453H22.584" stroke="white" style="stroke:white;stroke-opacity:1;" stroke-miterlimit="10" stroke-linecap="round" stroke-linejoin="round"/>
<path d="M25.9766 27.2281H28.5359" stroke="white" style="stroke:white;stroke-opacity:1;" stroke-miterlimit="10" stroke-linecap="round" stroke-linejoin="round"/>
<path d="M9.58398 27.2281H22.584" stroke="white" style="stroke:white;stroke-opacity:1;" stroke-miterlimit="10" stroke-linecap="round" stroke-linejoin="round"/>
<path d="M25.9766 32.6109H28.5359" stroke="white" style="stroke:white;stroke-opacity:1;" stroke-miterlimit="10" stroke-linecap="round" stroke-linejoin="round"/>
<path d="M9.58398 32.6109H22.584" stroke="white" style="stroke:white;stroke-opacity:1;" stroke-miterlimit="10" stroke-linecap="round" stroke-linejoin="round"/>
<path d="M9.58398 43.3766H28.5355" stroke="white" style="stroke:white;stroke-opacity:1;" stroke-miterlimit="10" stroke-linecap="round" stroke-linejoin="round"/>
<path d="M25.9766 48.7797H28.5359" stroke="white" style="stroke:white;stroke-opacity:1;" stroke-miterlimit="10" stroke-linecap="round" stroke-linejoin="round"/>
<path d="M9.58398 48.7797H22.584" stroke="white" style="stroke:white;stroke-opacity:1;" stroke-miterlimit="10" stroke-linecap="round" stroke-linejoin="round"/>
<path d="M25.9766 54.1625H28.5359" stroke="white" style="stroke:white;stroke-opacity:1;" stroke-miterlimit="10" stroke-linecap="round" stroke-linejoin="round"/>
<path d="M9.58398 54.1625H22.584" stroke="white" style="stroke:white;stroke-opacity:1;" stroke-miterlimit="10" stroke-linecap="round" stroke-linejoin="round"/>
<path d="M25.9766 59.5453H28.5359" stroke="white" style="stroke:white;stroke-opacity:1;" stroke-miterlimit="10" stroke-linecap="round" stroke-linejoin="round"/>
<path d="M9.58398 59.5453H22.584" stroke="white" style="stroke:white;stroke-opacity:1;" stroke-miterlimit="10" stroke-linecap="round" stroke-linejoin="round"/>
</svg>
