<svg width="23" height="33" viewBox="0 0 23 33" fill="none" xmlns="http://www.w3.org/2000/svg">
<path d="M21.7456 15.3331L2.2166 1.06208C2.04203 0.92842 1.82772 0.857075 1.60786 0.859432C1.38801 0.861788 1.17527 0.937709 1.0036 1.07508C0.805354 1.24322 0.647817 1.45414 0.542852 1.69196C0.437887 1.92977 0.388225 2.1883 0.397603 2.44808V30.9821C0.388562 31.2413 0.43829 31.4992 0.543064 31.7364C0.647837 31.9737 0.80494 32.1842 1.0026 32.3521C1.1786 32.4891 1.39455 32.565 1.6176 32.5681C1.83389 32.5676 2.04427 32.4975 2.2176 32.3681L21.7476 18.1011C21.9434 17.9279 22.1001 17.7151 22.2075 17.4767C22.3148 17.2384 22.3703 16.98 22.3703 16.7186C22.3703 16.4572 22.3148 16.1988 22.2075 15.9604C22.1001 15.7221 21.9434 15.5093 21.7476 15.3361L21.7456 15.3331Z" fill="#80B500" style="fill:#80B500;fill:color(display-p3 0.5020 0.7098 0.0000);fill-opacity:1;"/>
</svg>
