<svg width="104" height="104" viewBox="0 0 104 104" fill="none" xmlns="http://www.w3.org/2000/svg">
<path d="M89.9836 65.6297H13.6289C12.3898 65.6297 11.3945 64.6344 11.3945 63.3953V62.4813C11.3945 61.2422 12.3898 60.2469 13.6289 60.2469H89.9836C91.2226 60.2469 92.218 61.2422 92.218 62.4813V63.3953C92.1976 64.6344 91.2023 65.6297 89.9836 65.6297Z" stroke="white" style="stroke:white;stroke-opacity:1;" stroke-miterlimit="10" stroke-linecap="round" stroke-linejoin="round"/>
<path d="M51.7957 22.8719C31.1379 22.8719 14.4004 39.6094 14.4004 60.2672H89.191C89.2113 39.6094 72.4535 22.8719 51.7957 22.8719Z" stroke="white" style="stroke:white;stroke-opacity:1;" stroke-miterlimit="10" stroke-linecap="round" stroke-linejoin="round"/>
<path d="M65.2422 69.7938L68.4516 66.625C69.3047 65.7922 70.5031 65.4672 71.6203 65.7109" stroke="white" style="stroke:white;stroke-opacity:1;" stroke-miterlimit="10" stroke-linecap="round" stroke-linejoin="round"/>
<path d="M26.3848 72.9219L33.6363 67.5594C35.241 66.3812 37.1504 65.7109 39.1207 65.65C39.9129 65.6297 40.7051 65.6906 41.477 65.8531L49.7035 68.4531L58.4176 65.8125C60.0629 65.3047 61.8301 65.8734 62.8863 67.2344L62.927 67.275C63.4754 67.9859 63.252 69.0219 62.4598 69.4484L55.2285 73.3891L67.7816 71.4797L74.9926 66.1172C76.0488 65.4469 77.3895 65.4672 78.4254 66.1578L79.3801 66.7875C80.0301 67.2141 80.0504 68.1687 79.441 68.6359L71.8645 75.1156C70.0363 76.4969 67.9645 77.4922 65.7707 78.0609L59.4941 79.6859C56.6707 80.4172 53.7254 80.7016 50.8207 80.5187L44.991 79.7672C43.6098 79.6859 41.8629 79.7672 40.8676 80.7016L38.4098 82.6516L26.3848 72.9219Z" stroke="white" style="stroke:white;stroke-opacity:1;" stroke-miterlimit="10" stroke-linecap="round" stroke-linejoin="round"/>
<path d="M34.1656 86.9781L23.5218 74.9531C22.9124 74.2828 22.9937 73.2469 23.664 72.6375L25.6343 70.8906C26.3046 70.2812 27.3406 70.3625 27.9499 71.0328L38.5937 83.0578C39.2031 83.7281 39.1218 84.7641 38.4515 85.3734L36.4812 87.1203C35.7906 87.7297 34.7546 87.6687 34.1656 86.9781Z" stroke="white" style="stroke:white;stroke-opacity:1;" stroke-miterlimit="10" stroke-linecap="round" stroke-linejoin="round"/>
<path d="M51.7969 28.1328C54.9941 28.1328 57.5859 25.541 57.5859 22.3438C57.5859 19.1465 54.9941 16.5547 51.7969 16.5547C48.5997 16.5547 46.0078 19.1465 46.0078 22.3438C46.0078 25.541 48.5997 28.1328 51.7969 28.1328Z" fill="white" stroke="white" style="fill:white;fill-opacity:1;stroke:white;stroke-opacity:1;" stroke-miterlimit="10" stroke-linecap="round" stroke-linejoin="round"/>
</svg>
