<svg width="104" height="104" viewBox="0 0 104 104" fill="none" xmlns="http://www.w3.org/2000/svg">
<path d="M58.2559 23.3797H45.3574C39.7512 23.3797 36.8262 27.9297 36.8262 33.5359V44.5453C37.4965 43.9765 36.7246 43.6109 37.6793 43.6109C38.4918 43.6109 39.2637 43.875 39.873 44.3219V36.1562C39.873 33.0484 42.3918 30.5297 45.4996 30.5297H57.8902C60.998 30.5297 63.5168 33.0484 63.5168 36.1562V44.3422C64.1465 43.8953 64.9184 43.6109 65.7309 43.6109C66.7668 43.6109 66.0762 44.0375 66.7668 44.7078V33.5359C66.7871 27.9297 63.8621 23.3797 58.2559 23.3797Z" stroke="white" style="stroke:white;stroke-opacity:1;" stroke-miterlimit="10" stroke-linecap="round" stroke-linejoin="round"/>
<path d="M41.4379 66.7875H35.2223C32.1145 66.7875 29.5957 69.3062 29.5957 72.414V92.4422H74.0191V72.414C74.0191 69.3062 71.5004 66.7875 68.3926 66.7875H62.502" stroke="white" style="stroke:white;stroke-opacity:1;" stroke-miterlimit="10" stroke-linecap="round" stroke-linejoin="round"/>
<path d="M56.2457 61.8516V60.1656H47.3691V62.0141" stroke="white" style="stroke:white;stroke-opacity:1;" stroke-miterlimit="10" stroke-linecap="round" stroke-linejoin="round"/>
<path d="M37.7613 50.6594C39.8591 50.6594 41.5598 48.9588 41.5598 46.8609C41.5598 44.7631 39.8591 43.0625 37.7613 43.0625C35.6635 43.0625 33.9629 44.7631 33.9629 46.8609C33.9629 48.9588 35.6635 50.6594 37.7613 50.6594Z" stroke="white" style="stroke:white;stroke-opacity:1;" stroke-miterlimit="10" stroke-linecap="round" stroke-linejoin="round"/>
<path d="M65.8336 50.6594C67.9314 50.6594 69.632 48.9588 69.632 46.8609C69.632 44.7631 67.9314 43.0625 65.8336 43.0625C63.7358 43.0625 62.0352 44.7631 62.0352 46.8609C62.0352 48.9588 63.7358 50.6594 65.8336 50.6594Z" stroke="white" style="stroke:white;stroke-opacity:1;" stroke-miterlimit="10" stroke-linecap="round" stroke-linejoin="round"/>
<path d="M57.9918 60.1656H45.6012C42.4934 60.1656 39.9746 57.6469 39.9746 54.5391V36.1359C39.9746 33.0281 42.4934 30.5094 45.6012 30.5094H57.9918C61.0996 30.5094 63.6184 33.0281 63.6184 36.1359V54.5391C63.6387 57.6469 61.0996 60.1656 57.9918 60.1656Z" stroke="white" style="stroke:white;stroke-opacity:1;" stroke-miterlimit="10" stroke-linecap="round" stroke-linejoin="round"/>
<path d="M65.5902 13.9953C63.6605 13.9953 61.934 14.7672 60.6543 16.0265C58.6637 13.3656 55.4949 11.6594 51.9199 11.6594C48.3449 11.6594 45.1762 13.3656 43.1855 16.0265C41.9262 14.7672 40.1793 13.9953 38.2496 13.9953C34.3496 13.9953 31.2012 17.1437 31.2012 21.0437C31.2012 24.3547 33.4965 27.1375 36.584 27.889V35.8719H67.2559V27.889C70.3434 27.1375 72.6387 24.375 72.6387 21.0437C72.6387 17.1437 69.4902 13.9953 65.5902 13.9953Z" stroke="white" style="stroke:white;stroke-opacity:1;" stroke-miterlimit="10" stroke-linecap="round" stroke-linejoin="round"/>
<path d="M52.5488 71.5609C53.4832 73.5922 55.4332 74.689 58.216 74.689" stroke="white" style="stroke:white;stroke-opacity:1;" stroke-miterlimit="10" stroke-linecap="round" stroke-linejoin="round"/>
<path d="M58.2168 74.6891V92.4422" stroke="white" style="stroke:white;stroke-opacity:1;" stroke-miterlimit="10" stroke-linecap="round" stroke-linejoin="round"/>
<path d="M58.0535 64.4312H46.0285C45.1348 64.4312 44.4238 65.1422 44.4238 66.0359V67.6203C44.4238 67.7016 44.4441 67.8031 44.4441 67.8844C43.916 68.0469 43.3879 68.2906 42.9207 68.6562C41.0113 70.2 40.9707 73.2875 40.9707 73.2875C40.9707 73.2875 44.0176 73.8766 45.9066 72.3328C46.9426 71.5 47.4301 70.2203 47.6535 69.2047H58.0332C58.927 69.2047 59.6379 68.4937 59.6379 67.6V66.0156C59.6582 65.1422 58.9473 64.4312 58.0535 64.4312Z" stroke="white" style="stroke:white;stroke-opacity:1;" stroke-miterlimit="10" stroke-linecap="round" stroke-linejoin="round"/>
<path d="M52.7926 81.2297C53.8247 81.2297 54.6613 80.393 54.6613 79.3609C54.6613 78.3289 53.8247 77.4922 52.7926 77.4922C51.7605 77.4922 50.9238 78.3289 50.9238 79.3609C50.9238 80.393 51.7605 81.2297 52.7926 81.2297Z" stroke="white" style="stroke:white;stroke-opacity:1;" stroke-miterlimit="10" stroke-linecap="round" stroke-linejoin="round"/>
<path d="M52.7926 89.4359C53.8247 89.4359 54.6613 88.5993 54.6613 87.5672C54.6613 86.5351 53.8247 85.6984 52.7926 85.6984C51.7605 85.6984 50.9238 86.5351 50.9238 87.5672C50.9238 88.5993 51.7605 89.4359 52.7926 89.4359Z" stroke="white" style="stroke:white;stroke-opacity:1;" stroke-miterlimit="10" stroke-linecap="round" stroke-linejoin="round"/>
<path d="M57.6465 23.3797V30.5094" stroke="white" style="stroke:white;stroke-opacity:1;" stroke-miterlimit="10" stroke-linecap="round" stroke-linejoin="round"/>
<path d="M46.2109 23.3797V30.5094" stroke="white" style="stroke:white;stroke-opacity:1;" stroke-miterlimit="10" stroke-linecap="round" stroke-linejoin="round"/>
<path d="M55.8398 42.2094V44.0578" stroke="white" style="stroke:white;stroke-opacity:1;" stroke-miterlimit="10" stroke-linecap="round" stroke-linejoin="round"/>
<path d="M47.7559 42.2094V44.0578" stroke="white" style="stroke:white;stroke-opacity:1;" stroke-miterlimit="10" stroke-linecap="round" stroke-linejoin="round"/>
<path d="M51.7773 53.9906C51.7773 53.9906 53.382 53.1375 54.7227 53.1984C56.0633 53.2594 57.1602 54.9047 59.9023 54.8641" stroke="white" style="stroke:white;stroke-opacity:1;" stroke-miterlimit="10" stroke-linecap="round" stroke-linejoin="round"/>
<path d="M51.8184 53.9906C51.8184 53.9906 50.2137 53.1375 48.873 53.1984C47.5324 53.2594 46.4355 54.9047 43.6934 54.8641" stroke="white" style="stroke:white;stroke-opacity:1;" stroke-miterlimit="10" stroke-linecap="round" stroke-linejoin="round"/>
</svg>
