<svg width="50" height="60" viewBox="0 0 50 60" fill="none" xmlns="http://www.w3.org/2000/svg">
<path fill-rule="evenodd" clip-rule="evenodd" d="M13.14 0C7.97401 0 5.40801 6.236 9.04601 9.874L9.98001 10.808V12.04C9.98001 12.684 10.204 13.278 10.58 13.744C10.586 13.862 10.596 13.978 10.606 14.092L10.68 15.22C10.1388 15.7194 9.70711 16.3256 9.41209 17.0003C9.11708 17.675 8.96518 18.4036 8.96601 19.14C8.96601 20.46 9.44601 21.672 10.24 22.602V23.72C10.24 25.428 10.922 27.01 12.06 28.166C12.228 28.632 12.432 29.08 12.664 29.51L10.854 30.838C10.116 31.32 9.38601 31.862 8.71201 32.418H8.71001C5.9835 34.6643 3.7884 37.4867 2.28242 40.6823C0.776435 43.8778 -0.00303634 47.3673 8.88849e-06 50.9V58C8.88849e-06 58.5304 0.210723 59.0391 0.585796 59.4142C0.960868 59.7893 1.46958 60 2.00001 60H46C47.036 60 47.98 59.568 48.66 58.946C49.344 58.32 49.9 57.366 49.9 56.22V46.24C49.9 44.204 48.37 42.52 46.4 42.272V40.008L46.402 40.004L46.404 40C46.4178 39.9754 46.4361 39.9537 46.458 39.936C47.332 39.322 48.008 38.482 48.446 37.498C49.0134 36.2431 49.3086 34.8823 49.312 33.5051C49.3155 32.128 49.0272 30.7657 48.466 29.508C47.9922 28.4498 47.2219 27.5515 46.2483 26.9218C45.2747 26.2922 44.1395 25.9581 42.98 25.96C41.8218 25.9578 40.6876 26.2909 39.7145 26.919C38.7414 27.5472 37.9709 28.4436 37.496 29.5C37.3031 29.925 37.1414 30.3635 37.012 30.812L36.78 30.662L35.466 29.71C35.856 29.03 36.166 28.302 36.388 27.532C37.2135 26.4325 37.6599 25.0949 37.66 23.72V22.744C38.5621 21.7608 39.0618 20.4744 39.06 19.14C39.06 17.664 38.46 16.33 37.496 15.364L37.572 14.116C37.604 13.832 37.628 13.546 37.642 13.258C37.826 12.888 37.932 12.464 37.92 12.006V10.828L38.874 9.874C42.512 6.236 39.944 0 34.78 0H13.14ZM36.046 7.046L34.686 8.406C34.4471 8.59291 34.254 8.83181 34.1213 9.10455C33.9885 9.37728 33.9197 9.67668 33.92 9.98V11H13.98V9.98C13.9799 9.44961 13.7691 8.94099 13.394 8.566L11.874 7.046C10.752 5.924 11.546 4 13.14 4H34.78C36.374 4 37.168 5.924 36.046 7.046ZM22.18 30.94C20.8162 30.9404 19.4824 30.5393 18.345 29.7868C17.2076 29.0342 16.3169 27.9634 15.784 26.708C15.7577 26.6319 15.733 26.5552 15.71 26.478C15.6748 26.3593 15.6286 26.2441 15.572 26.134C15.4523 25.7575 15.3654 25.3714 15.312 24.98L14.74 16.33C14.7463 16.2381 14.7463 16.1459 14.74 16.054L14.594 13.81L14.59 13.764C14.5674 13.5098 14.5528 13.2551 14.546 13H33.628C33.6176 13.1296 33.6043 13.259 33.588 13.388L33.582 13.422L32.86 24.982C32.6257 26.6362 31.8017 28.15 30.5397 29.2448C29.2777 30.3395 27.6627 30.9416 25.992 30.94H22.18ZM12.356 34.656C9.76849 36.5008 7.65988 38.9379 6.20624 41.7637C4.75261 44.5896 3.99614 47.7222 4.00001 50.9V56H37.034C37.0739 55.6383 37.1854 55.2881 37.362 54.97C37.1235 54.5559 36.9976 54.0865 36.9969 53.6085C36.9962 53.1306 37.1207 52.6608 37.358 52.246C37.1188 51.8286 36.9939 51.3555 36.996 50.8744C36.9981 50.3933 37.1271 49.9213 37.37 49.506C37.1233 49.0686 37.0015 48.5719 37.018 48.07C37.05 46.78 38.02 45.674 39.29 45.536C39.3773 45.5119 39.4675 45.4998 39.558 45.5H40.538V39.866C40.5361 39.7007 40.4941 39.5383 40.4157 39.3927C40.3374 39.2471 40.2249 39.1227 40.088 39.03L40.076 39.02L40.062 39.012C39.3521 38.4922 38.784 37.8024 38.41 37.006C38.3472 36.8695 38.2878 36.7315 38.232 36.592C37.9099 36.5116 37.6129 36.3521 37.368 36.128C36.7905 35.6023 36.1828 35.1108 35.548 34.656H26.944C27.6337 35.1366 28.197 35.7768 28.586 36.522C28.975 37.2672 29.1781 38.0954 29.178 38.936V42.276C27.796 42.2749 26.4707 41.7263 25.4923 40.7502C24.5139 39.7741 23.9622 38.45 23.958 37.068C23.9538 38.45 23.4021 39.7741 22.4237 40.7502C21.4453 41.7263 20.12 42.2749 18.738 42.276V38.936C18.738 37.166 19.622 35.6 20.972 34.656H12.356ZM45.9 49.18V47.5H39.77C39.701 47.5147 39.6306 47.5221 39.56 47.522C39.32 47.522 39.028 47.752 39.02 48.122V48.132C39.0151 48.2456 39.0368 48.3589 39.0833 48.4627C39.1299 48.5665 39.1999 48.658 39.288 48.73C39.4121 48.8252 39.5122 48.9481 39.5802 49.089C39.6482 49.2298 39.6822 49.3847 39.6795 49.5411C39.6768 49.6974 39.6374 49.851 39.5645 49.9894C39.4917 50.1278 39.3874 50.2472 39.26 50.338C39.1778 50.4022 39.1115 50.4845 39.0664 50.5785C39.0213 50.6725 38.9986 50.7757 39 50.88C39 51.15 39.12 51.33 39.24 51.412C39.3732 51.5025 39.4825 51.6239 39.5587 51.7657C39.6349 51.9076 39.6757 52.0658 39.6777 52.2268C39.6797 52.3878 39.6427 52.5469 39.57 52.6906C39.4973 52.8343 39.3909 52.9582 39.26 53.052C39.1772 53.1166 39.1107 53.1995 39.0655 53.2943C39.0204 53.3891 38.998 53.4931 39 53.598C39 53.866 39.12 54.046 39.24 54.128C39.3726 54.2179 39.4816 54.3383 39.5579 54.4792C39.6342 54.62 39.6756 54.7771 39.6785 54.9372C39.6814 55.0974 39.6459 55.2559 39.5748 55.3994C39.5037 55.5429 39.3992 55.6673 39.27 55.762C39.1885 55.824 39.1245 55.906 39.084 56H45.9V49.19V49.18ZM42.98 30.3C42.17 30.3 41.452 30.772 41.134 31.486C40.8551 32.1131 40.711 32.7937 40.711 33.48C40.711 34.1663 40.8551 34.8449 41.134 35.472C41.452 36.188 42.17 36.66 42.98 36.66C43.79 36.66 44.508 36.188 44.826 35.474C45.39 34.214 45.39 32.752 44.83 31.494C44.6666 31.1401 44.4059 30.8399 44.0783 30.6285C43.7508 30.4171 43.3698 30.3031 42.98 30.3Z" fill="white" style="fill:white;fill-opacity:1;"/>
</svg>
